<?xml version="1.0"?>
<svg width="512" height="512" xmlns="http://www.w3.org/2000/svg" xmlns:svg="http://www.w3.org/2000/svg" preserveAspectRatio="xMidYMid meet" version="1.0">

 <g class="layer">
  <title>Layer 1</title>
  <path d="m201,16.6c-9.1,1.9 -20.1,7.6 -26.5,13.7c-7.5,7.2 -88.5,125.9 -88.5,129.7c0,5.2 7.1,8.9 11.3,5.7c0.9,-0.6 19.9,-28 42.2,-60.7c25.1,-36.8 42.4,-61.2 45.4,-64.1c8.7,-8.2 16.7,-10.8 32.9,-10.9c9.6,0 10.5,-0.2 12.7,-2.5c3.4,-3.3 3.3,-7.7 -0.1,-10.4c-2.3,-1.8 -4,-2.1 -12.8,-2c-5.5,0 -13,0.7 -16.6,1.5z" fill="#389826" id="svg_2" stroke="#007f00" stroke-width="2" transform="matrix(1, 0, 0, 1, 0, 0)"/>
  <path d="m292.8,15c-3.8,2.9 -3.9,8 -0.2,10.9c2.4,1.9 4,2.1 15.8,2.1c13.9,0 20,1.1 27.5,5c6,3 14.2,10.9 17.4,16.7c1.4,2.7 9.1,21.4 17.2,41.8c8,20.3 15.3,37.6 16.2,38.2c2.8,2.1 7.4,1.4 16.8,-2.7c4.9,-2.1 9.1,-3.7 9.2,-3.6c0.2,0.1 -5.3,16.9 -12.1,37.2c-10.6,31.7 -12.6,36.9 -14.2,36.8c-1,-0.1 -5.2,-0.8 -9.2,-1.5c-8.1,-1.5 -9.8,-1 -12,3.3c-1.7,3.7 0,7.6 4,9.2c1.8,0.8 8.4,2.5 14.5,3.7l11.3,2.4l2.4,-2.5c1.6,-1.8 7.3,-17.2 19.2,-52.7c16.2,-48.1 16.8,-50.4 15.4,-53c-3,-5.2 -5.5,-5.1 -21.2,1.6c-7.9,3.4 -14.6,6.1 -15,6.1c-0.4,0 -6.8,-15.5 -14.3,-34.5c-14.6,-36.8 -17.8,-43 -26.8,-51.1c-12.3,-11 -22.1,-14.4 -43.7,-15.1c-14.8,-0.5 -15.6,-0.4 -18.2,1.7z" fill="#389826" id="svg_3" stroke="#007f00" stroke-width="2"/>
  <path d="m256.7,23.7c-0.8,1 -3.9,7.2 -6.7,13.8c-2.9,6.6 -12.5,27.1 -21.2,45.5c-32.1,67.1 -42.7,93.6 -49.4,122.5c-3.6,15.9 -3.9,34.7 -0.6,47c13.5,50 65.8,76.4 114.6,57.8c13.8,-5.2 29.8,-18 38.6,-30.8c11.4,-16.5 16.8,-39.5 14.1,-60c-3.9,-29.3 -15.7,-60.8 -49.9,-132.5c-17.7,-37.3 -21.2,-44.7 -25.4,-54.8c-1.6,-4 -3.7,-7.9 -4.5,-8.7c-2,-2.1 -7.6,-1.9 -9.6,0.2zm24.1,64.8c29.6,62.1 41.1,90.3 47.8,117c3.5,13.7 4.3,30.5 1.9,40.9c-5.3,24.2 -23.9,44.3 -48.3,52.4c-6.7,2.2 -9.5,2.5 -20.7,2.5c-11.4,0 -14,-0.3 -21,-2.6c-11.4,-3.8 -19.8,-9 -29.1,-18.2c-6.6,-6.6 -8.9,-9.8 -12.8,-17.5c-6.2,-12.7 -8,-21.2 -7.3,-36c1.3,-27.1 12.5,-57.6 49.4,-134.9c9,-18.9 17.3,-36.6 18.5,-39.4l2.2,-5.1l3.5,7.5c1.9,4.1 9.1,19.1 15.9,33.4z" fill="#4063d8" id="svg_4" stroke="#003f7f" stroke-width="2" transform="matrix(1, 0, 0, 1, 0, 0)"/>
  <path d="m285.5,167c-2.8,3.1 -2.2,6.5 2.9,17.9c2.6,5.8 6.2,14.6 7.9,19.5c2.9,8.3 3.1,10.2 3.2,21.6c0,11.6 -0.2,12.9 -2.8,18.4c-1.5,3.3 -4.3,7.8 -6.2,10.1c-4.7,5.8 -5.2,8.5 -2.2,12c3.7,4.3 8.1,3.9 12.4,-1.1c11.5,-13.3 16.3,-31.6 13.3,-50.2c-2.1,-12.7 -13.5,-42.6 -18.3,-48c-2.6,-2.8 -7.7,-3 -10.2,-0.2z" fill="#4063d8" id="svg_5" stroke="#003f7f" stroke-width="2" transform="matrix(1, 0, 0, 1, 0, 0)"/>
  <path d="m257.7,270.9c-2.6,0.4 -5.5,1.4 -6.4,2.3c-2.2,2.3 -2.1,7.3 0.3,9.9c1.7,1.9 2.7,2.1 10.3,1.7c7.2,-0.4 8.7,-0.8 10.3,-2.7c2.4,-3 2.3,-7.6 -0.2,-10.1c-2.1,-2.1 -5.2,-2.3 -14.3,-1.1z" fill="#4063d8" id="svg_6" stroke="#003f7f" stroke-width="2"/>
  <path d="m425.3,181c-3.2,1.3 -5.6,5.4 -4.8,8.1c0.4,1.3 15.4,26.5 33.2,56.2c17.9,29.6 33.4,56.4 34.5,59.5c1.6,4.6 1.9,7.5 1.6,14.7c-0.5,8.9 -0.7,9.7 -18.7,56.5c-10,26.1 -19.6,49.6 -21.3,52.3c-6.4,10 -17.5,17.4 -29.2,19.6c-3.8,0.7 -22.5,1.1 -50.1,1.1c-52.1,0 -47.6,-1.2 -48.5,12.7l-0.5,8.6l-20.3,-28.8c-11.2,-15.8 -20.4,-29.1 -20.5,-29.6c-0.1,-0.5 9,-13 20.3,-27.9l20.5,-27l0.6,6.8c0.3,3.7 0.9,7.4 1.3,8.3c1.6,3.7 4.6,3.9 52.7,3.9l46.9,0l2.8,4.7c3.9,6.7 5.7,8.3 9.5,8.3c4.1,0 7,-2.9 7,-6.8c0,-1.5 -2.2,-6.4 -4.9,-10.9c-45.1,-75.1 -58.6,-97.2 -60,-97.7c-5.4,-2.1 -10.7,1 -10.7,6.2c0,2.2 21.1,38.3 47,80.4c0.2,0.5 -16.9,0.8 -38.1,0.8l-38.6,0l0,-14.5c0,-14.2 -0.1,-14.7 -2.5,-17c-2.8,-2.9 -6.5,-3.2 -9.3,-0.8c-1.1,1 -15.3,19.3 -31.6,40.7c-23.4,30.8 -29.6,39.5 -29.6,41.8c0,2.3 6.9,12.8 29.6,45.2c16.3,23.1 30.5,42.9 31.6,43.8c2.8,2.5 6.5,2.2 9.3,-0.7c2.5,-2.4 2.5,-2.7 2.5,-19.5l0,-17l42.1,0c47,0 48.6,-0.2 61.4,-6.8c8.2,-4.2 18.8,-14.3 22.9,-21.7c2.3,-4.2 35.3,-89 39.7,-102c0.8,-2.4 1.4,-8.3 1.3,-15c0,-8.9 -0.4,-12.3 -2.3,-17.5c-3.4,-9.6 -68.4,-117.3 -71.7,-118.8c-1.4,-0.7 -2.6,-1.2 -2.7,-1.1c-0.1,0 -1.2,0.4 -2.4,0.9z" fill="#8558b2" id="svg_7" stroke="#3f007f" stroke-width="2" transform="matrix(1, 0, 0, 1, 0, 0)"/>
  <path d="m76,202.1c-45,6.6 -46.6,6.9 -48.7,9.4c-4.6,5.3 -3.4,7.1 13.4,19c7.6,5.4 14,9.9 14.1,10.1c0.2,0.1 -8.7,15.4 -19.9,34c-12.4,20.7 -21.1,36.4 -22.6,40.6c-5,14.5 -3.8,31.9 3.1,45.2c4.1,7.8 64.9,85.9 71.3,91.6c6.2,5.5 16.9,10.8 25.2,12.6c5.3,1.1 19.6,1.4 71.2,1.4c63.9,0 64.7,0 67.3,-2.1c3.1,-2.5 3.4,-6.6 0.7,-10l-1.9,-2.4l-67.9,-0.5c-73.8,-0.6 -70.6,-0.3 -79.9,-6.3c-6.1,-3.9 -10.3,-8.8 -42,-49.7c-18.8,-24.1 -30.8,-40.6 -32.4,-44c-3.1,-7.3 -3.9,-21.3 -1.6,-29.1c0.9,-3.5 9.9,-19.4 24.1,-42.9c12.4,-20.6 22.5,-38.5 22.5,-39.8c0,-3.8 -1.4,-5.4 -10.4,-11.7c-8.3,-5.8 -9.9,-7.5 -7.3,-7.5c0.6,0 16.2,-2.2 34.5,-4.9c22.7,-3.2 33.5,-4.4 33.8,-3.7c3.3,8.9 21.9,69.6 21.3,69.6c-0.4,0 -3.5,-1.6 -6.8,-3.5c-6.5,-3.9 -11,-4.4 -13.4,-1.8c-0.8,1 -11.6,20.5 -23.9,43.2c-21,38.9 -22.6,41.5 -25.6,42.3c-6.6,1.7 -8,10.6 -2.2,13.5c1.9,1 22.2,1.3 90.6,1.3c87.7,0 88.1,0 90.8,-2.1c3.3,-2.6 3.6,-8.1 0.6,-10.7c-1.9,-1.6 -7.9,-1.7 -81,-2.2l-78.9,-0.5l17.5,-32.5c9.7,-17.9 18.1,-33.5 18.7,-34.7c1.2,-2.1 1.4,-2.1 13.2,4.8c6.6,3.8 13.1,6.9 14.6,6.9c2.9,0 6.9,-3.7 6.9,-6.5c0,-1 -7,-23.9 -15.5,-50.9c-11.3,-35.8 -16.1,-49.6 -17.6,-50.9c-1.3,-1 -3.6,-1.7 -5.8,-1.6c-2,0.1 -24.5,3.2 -50.1,7z" fill="#cb3c33" id="svg_8" stroke="#7f0000" stroke-width="2" transform="matrix(1, 0, 0, 1, 0, 0)"/>
 </g>
</svg>